<?xml version="1.0" encoding="utf-8"?>
<!-- Generator: Adobe Illustrator 23.0.2, SVG Export Plug-In . SVG Version: 6.00 Build 0)  -->
<svg version="1.1" id="Layer_1" xmlns="http://www.w3.org/2000/svg" xmlns:xlink="http://www.w3.org/1999/xlink" x="0px" y="0px"
	 viewBox="0 0 361.1 430.2" style="enable-background:new 0 0 361.1 430.2;" xml:space="preserve">
<style type="text/css">
	.st0{fill:#D85928;}
	.st1{fill:#A2C139;}
</style>
<g>
	<path class="st0" d="M180.6,395.2c-1.5,0-3.4,1.5-4.7,3.6l-0.8,1.3l0.1-1.6c0-0.6-0.1-1.1-0.4-1.8c-0.3-0.6-1-1.3-1.8-1.9
		c-0.4,1.3-1.3,3.6-2.4,6.4c-2.1,5.4-4.7,12.1-5.5,16.1c-0.4,1.9-0.1,2.7,0.5,3.2c0.6,0.6,1.7,1.3,2.5,1.9c0.3-2.6,2.4-9.2,2.9-10.6
		l0.4-1.2l0.3,1.3c0.5,1.9,1.8,3.1,3.6,3.1c3.7,0,7.8-8.2,7.8-15.4C183.1,396.9,182.1,395.2,180.6,395.2z M173.4,410.7
		c-0.7,0-1.2-0.5-1.5-1.2v-0.1v-0.1c1.4-4,4.2-9.6,5.6-9.6c0.4,0,0.8,0.2,0.8,1C178.3,403.7,175.4,410.7,173.4,410.7z"/>
	<path class="st0" d="M270.2,395.2c-1.5,0-3.4,1.5-4.7,3.6l-0.8,1.3l0.1-1.6c0-0.6-0.1-1.1-0.4-1.8c-0.3-0.6-1-1.3-1.8-1.9
		c-0.4,1.3-1.3,3.6-2.4,6.4c-2.1,5.4-4.7,12.1-5.5,16.1c-0.4,1.9-0.1,2.7,0.5,3.2c0.6,0.6,1.7,1.3,2.5,1.9c0.3-2.6,2.4-9.2,2.9-10.6
		l0.4-1.2l0.3,1.3c0.5,1.9,1.8,3.1,3.6,3.1c3.7,0,7.8-8.2,7.8-15.4C272.8,396.9,271.8,395.2,270.2,395.2z M263,410.7
		c-0.7,0-1.2-0.5-1.5-1.2v-0.1v-0.1c1.4-4,4.2-9.6,5.6-9.6c0.4,0,0.8,0.2,0.8,1C268,403.7,265.1,410.7,263,410.7z"/>
	<path class="st0" d="M260.3,387.4L260.3,387.4c-0.6-0.8-1.6-1.7-2.6-2.3c-0.4,1.7-2,5.9-3.8,10.7c-2,5.3-4.3,11.3-5.2,14.5
		c-0.5,1.8-0.3,3,0.6,3.9c0.6,0.6,1.6,1.2,2.6,1.5c0.3-2.7,3.2-10.4,5.8-17.1c1-2.7,2-5.3,2.6-7C261,389.7,261,388.5,260.3,387.4z"
		/>
	<path class="st0" d="M162.6,395.1c-4.9,0-10.3,7.5-10.3,14.3c0,3.7,1.7,5.9,4.7,5.9c5.1,0,9.9-7,9.9-14.3
		C166.9,397.3,165.2,395.1,162.6,395.1z M158.5,410.3c-0.7,0-1.6-0.7-1.6-2.5c0-4.1,2.9-9.1,4.8-9.1c0.7,0,1.2,0.8,1.2,2.1
		C162.9,404.8,160.3,410.3,158.5,410.3z"/>
	<path class="st0" d="M207.6,398.5c0-1-0.3-1.9-0.9-2.5c-0.6-0.7-1.6-1-2.9-1c-5.7,0-11.4,8.3-11.5,14.5c-0.1,1.9,0.4,3.4,1.4,4.4
		c0.9,0.9,2.2,1.4,3.6,1.4c3.5,0,6.3-2.6,6.9-6.5c-1.2,0.8-2.6,1.4-3.8,1.4c-1.8,0-2.6-0.9-2.7-2.9v-0.4h0.3
		C203.2,406.4,207.6,402.5,207.6,398.5z M198.2,404.4c0.8-3,3-6.5,4.7-6.5c0.5,0,1,0.3,1,1.2c0,1.8-2.3,4.8-5.2,5.7L198,405
		L198.2,404.4z"/>
	<path class="st0" d="M195,387.4L195,387.4c-0.6-0.8-1.6-1.7-2.6-2.3c-0.4,1.7-2,5.9-3.8,10.7c-2,5.3-4.3,11.3-5.2,14.5
		c-0.5,1.8-0.3,3,0.6,3.9c0.6,0.6,1.6,1.2,2.6,1.5c0.3-2.7,3.2-10.3,5.8-17.1c1-2.7,2-5.3,2.6-7C195.8,389.7,195.8,388.5,195,387.4z
		"/>
	<path class="st0" d="M233.7,406.3c0.1-1.7,0-2.9-0.4-3.8l-0.1-0.1l0.1-0.1c0.5-1.2,0.9-2.5,1.4-3.6c0.9-2.4,1.8-4.7,2.4-6.3
		c0.7-2.1,0.6-3.4-0.4-4.5c-0.7-0.7-1.8-1.5-2.7-2.1c-0.4,1.7-1.8,5.5-3.5,9.8c-0.6,1.6-1.3,3.4-1.9,5l-0.1,0.2h-0.2
		c-1.6,0.1-3.3,0.3-4.9,0.5l-1.4,0.2l0.2-0.6c1.4-3.7,2.7-7,3.5-9.1c0.5-1.4,0.9-3.2-0.3-4.4c-0.5-0.6-1.6-1.3-2.7-1.8
		c-0.4,1.6-1.8,5.4-3.4,9.7c-0.8,2.1-1.6,4.3-2.4,6.4l-0.1,0.2h-0.3c-0.6,0-1,0-1.3-0.1c0.2,0.9,0.4,1.7,0.6,2.3l0.1,0.1l-0.1,0.1
		c-0.8,2.2-1.4,4.2-1.9,5.8c-0.5,1.8-0.3,3.1,0.6,3.8c0.7,0.5,1.7,1.1,2.6,1.5c0.2-1.5,1.1-4.3,2.6-8.5l0.1-0.2h0.3
		c1.3-0.1,2.9-0.3,4.6-0.5l1.8-0.2l-0.2,0.6c-0.4,1.2-0.9,2.5-1.1,3.5c-0.7,2.4,0,3.5,1.1,4.2c0.7,0.4,1.6,0.9,2.5,1.2
		c0.2-1.5,1.1-4.4,3-9.5l0.1-0.3h0.3C232.7,406.1,233.2,406.2,233.7,406.3z"/>
	<path class="st0" d="M322.3,409.5c-0.3-0.4-0.5-0.9-0.5-1.6c0-1.4,1.2-4.5,2.6-8.2l0.1-0.2h0.2c1.8-0.2,2.9-0.2,3.6-0.1
		c-0.1-1-0.3-2.1-0.6-2.8c-0.3-0.5-0.7-0.8-1.4-0.8H326v-0.3c0-0.2,0.1-0.3,0.1-0.4c0.5-1.5,0.5-2.5,0.1-3.3c-0.5-1-1.2-1.9-2.2-2.5
		c-0.4,1.3-1.3,3.2-2.3,5.6l-0.7,1.6h-0.5c-1,0.1-2,0.2-2.6,0.2c0,0.9,0.2,1.8,0.5,2.4c0.1,0.4,0.4,0.6,0.7,0.8l0.4,0.1l-0.2,0.4
		c-1.4,3.3-3.2,8-3.3,10.8c0,1.4,0.3,2.6,1,3.3c0.6,0.6,1.3,0.9,2.3,0.9c2.4,0,4.8-2.4,5.7-5.6C324,410.1,322.9,410.1,322.3,409.5z"
		/>
	<path class="st0" d="M340.2,404.3c0.1-0.8,0.5-1.7,0.9-2.7c0.5-1.2,1-2.4,1-3.2c0-1.4-2-3.3-3.9-3.3c0,0,0,0-0.1,0
		c-1.8,0-4.1,1.1-5.9,2.8c-1.3,1.3-2.1,2.8-2.1,4.1c0,1.8,1.5,2.9,2.9,3.9c1,0.7,1.9,1.4,1.9,2.2c0,0.4-0.2,1.5-2.8,1.5
		c-2.2,0-3.6-1.1-4-2.3c-0.8,0.9-1.3,2.3-1.3,3.9c0,2.5,2.2,4.1,5.6,4.1c4.1,0,6.9-2.4,6.9-5.9c0-2.4-1.6-3.7-3.1-4.8
		c-1.1-0.8-2-1.6-2-2.7c0-1.7,1.9-3.4,3.7-4.1l0.8-0.3l-0.3,0.8c-0.1,0.2-0.2,0.4-0.3,0.7c-0.3,0.7-0.7,1.6-0.9,2.3
		c-0.2,0.8-0.1,1.1,0.5,1.6C338.3,403.5,339.3,404.1,340.2,404.3z"/>
	<path class="st0" d="M316.4,398.5c0-1-0.3-1.9-0.9-2.5c-0.6-0.7-1.6-1-2.9-1c-5.7,0-11.4,8.3-11.5,14.5c-0.1,1.9,0.4,3.4,1.4,4.4
		c0.9,0.9,2.2,1.4,3.6,1.4c3.5,0,6.3-2.6,6.9-6.5c-1.2,0.8-2.6,1.4-3.8,1.4c-1.8,0-2.6-0.9-2.7-2.9v-0.4h0.3
		C311.9,406.4,316.3,402.5,316.4,398.5z M306.9,404.4c0.8-3,3-6.5,4.7-6.5c0.5,0,1,0.3,1,1.2c0,1.8-2.3,4.8-5.2,5.7l-0.7,0.2
		L306.9,404.4z"/>
	<path class="st0" d="M242.8,410.2c-1.8,0-2.6-0.9-2.7-2.9v-0.4h0.3c5-0.5,9.4-4.4,9.5-8.4c0-1-0.3-1.9-0.9-2.5
		c-0.6-0.7-1.6-1-2.9-1c-5.7,0-11.4,8.3-11.5,14.5c-0.1,1.9,0.4,3.4,1.4,4.4c0.9,0.9,2.2,1.4,3.6,1.4c3.5,0,6.3-2.6,6.9-6.5
		C245.5,409.7,244,410.2,242.8,410.2z M240.5,404.4c0.8-3,3.1-6.5,4.7-6.5c0.5,0,1,0.3,1,1.2c0,1.8-2.3,4.8-5.2,5.7l-0.7,0.2
		L240.5,404.4z"/>
	<path class="st0" d="M292.7,406.9c5.9-1.7,10.8-8.1,10.8-14.2c0-3.4-1.7-7-6.6-7c-3,0-5.6,1-7.7,1.9c-1.1,0.4-2,0.8-2.8,0.9
		c0.2,1,0.7,1.9,1,2.4l0.1,0.2l-0.1,0.2c-0.5,1.5-1.4,3.8-2.4,6.4c-1.7,4.3-3.6,9.2-4.5,12.6c-0.5,1.7-0.3,3,0.6,3.9
		c0.6,0.6,1.8,1.4,2.9,1.8c0.2-1.8,1.3-5.4,3.3-10.9l0.3-0.8l0.4,0.8C289.3,407.1,290.3,407.6,292.7,406.9z M288.6,402.1
		c0.4-1.2,0.9-2.3,1.3-3.3c0.3-0.9,0.6-1.6,0.9-2.4c0.8-2.1,0.8-3.1,0-4l-0.4-0.5l0.6-0.2c0.4-0.1,0.9-0.3,1.4-0.5
		c1.2-0.4,2.5-0.8,3.6-0.8c1.7,0,2.7,1,2.7,2.8c0,4-5.5,8.6-9.8,9.3l-0.6,0.1L288.6,402.1z"/>
	<path class="st0" d="M153.1,398.5c0-1-0.3-1.9-0.9-2.5c-0.6-0.7-1.6-1-2.9-1c-5.7,0-11.4,8.3-11.5,14.5c-0.1,1.9,0.4,3.4,1.4,4.4
		c0.9,0.9,2.2,1.4,3.6,1.4c3.5,0,6.3-2.6,6.9-6.5c-1.2,0.8-2.6,1.4-3.8,1.4c-1.8,0-2.6-0.9-2.7-2.9v-0.4h0.3
		C148.6,406.4,153,402.5,153.1,398.5z M143.6,404.4c0.8-3,3-6.5,4.7-6.5c0.5,0,1,0.3,1,1.2c0,1.8-2.3,4.8-5.2,5.7l-0.7,0.2
		L143.6,404.4z"/>
	<path class="st0" d="M129.4,406.9c5.9-1.7,10.8-8.1,10.8-14.2c0-3.4-1.7-7-6.6-7c-3,0-5.6,1-7.7,1.9c-1.1,0.4-2,0.8-2.8,0.9
		c0.2,1,0.7,1.9,1,2.4l0.1,0.2l-0.1,0.2c-0.5,1.5-1.4,3.8-2.4,6.4c-1.7,4.3-3.6,9.2-4.5,12.6c-0.5,1.7-0.3,3,0.6,3.9
		c0.6,0.6,1.8,1.4,2.9,1.8c0.2-1.8,1.3-5.4,3.3-10.9l0.3-0.8l0.4,0.8C126,407.1,127,407.6,129.4,406.9z M125.4,402.1
		c0.4-1.2,0.9-2.3,1.3-3.3c0.3-0.9,0.6-1.6,0.9-2.4c0.8-2.1,0.8-3.1,0-4l-0.4-0.5l0.6-0.2c0.4-0.1,0.9-0.3,1.4-0.5
		c1.2-0.4,2.5-0.8,3.6-0.8c1.7,0,2.7,1,2.7,2.8c0,4-5.5,8.6-9.8,9.3l-0.6,0.1L125.4,402.1z"/>
	<path class="st0" d="M30.2,406.3c0.1-1.7,0-2.9-0.4-3.8l-0.1-0.1l0.1-0.1c0.5-1.2,0.9-2.4,1.4-3.6c0.9-2.4,1.8-4.7,2.4-6.3
		c0.7-2.1,0.6-3.4-0.4-4.5c-0.7-0.7-1.8-1.5-2.7-2.1c-0.4,1.7-1.8,5.5-3.5,9.8c-0.6,1.6-1.3,3.4-1.9,5l-0.1,0.2h-0.2
		c-1.6,0.1-3.3,0.3-4.9,0.5l-1.4,0.2l0.2-0.6c1.3-3.4,2.7-6.9,3.5-9.1c0.5-1.4,0.9-3.2-0.3-4.4c-0.6-0.6-1.6-1.3-2.7-1.8
		c-0.4,1.6-1.8,5.3-3.4,9.6c-0.8,2.1-1.6,4.3-2.4,6.5l-0.1,0.2H13c-0.6,0-1,0-1.3-0.1c0.2,0.9,0.4,1.7,0.6,2.3l0.1,0.1l-0.1,0.1
		c-0.8,2.2-1.4,4.2-1.9,5.8c-0.5,1.8-0.3,3.1,0.6,3.8c0.7,0.5,1.7,1.1,2.6,1.5c0.2-1.5,1.1-4.3,2.6-8.5l0.1-0.2h0.3
		c1.3-0.1,2.9-0.3,4.6-0.5L23,406l-0.2,0.6c-0.4,1.2-0.9,2.5-1.1,3.5c-0.7,2.4,0,3.5,1.1,4.2c0.7,0.4,1.6,0.9,2.5,1.2
		c0.2-1.5,1.1-4.4,3-9.5l0.1-0.3h0.3C29.3,406.1,29.8,406.2,30.2,406.3z"/>
	<path class="st0" d="M66.8,395.2c-1.6,0-3.4,1.5-4.7,3.6l-0.8,1.4l0.1-1.6c0-0.6-0.1-1.1-0.4-1.8c-0.3-0.6-1-1.3-1.8-1.9
		c-0.4,1.3-1.3,3.6-2.4,6.4c-2.1,5.4-4.7,12.2-5.5,16.1c-0.4,1.9-0.1,2.7,0.5,3.2c0.6,0.6,1.7,1.3,2.5,1.9c0.3-2.6,2.4-9.2,2.9-10.6
		l0.4-1.2L58,412c0.5,1.9,1.8,3.1,3.6,3.1c3.7,0,7.8-8.2,7.8-15.4C69.4,396.9,68.4,395.2,66.8,395.2z M59.6,410.7
		c-0.7,0-1.2-0.5-1.5-1.2v-0.1v-0.1c1.4-4,4.2-9.6,5.6-9.6c0.4,0,0.8,0.2,0.8,1C64.6,403.7,61.6,410.7,59.6,410.7z"/>
	<path class="st0" d="M56.8,387.4L56.8,387.4c-0.6-0.8-1.6-1.7-2.6-2.3c-0.4,1.7-2,5.9-3.8,10.7c-2,5.3-4.3,11.3-5.2,14.5
		c-0.5,1.8-0.3,3,0.6,3.9c0.6,0.6,1.6,1.2,2.6,1.5c0.3-2.7,3.2-10.3,5.8-17.1c1-2.7,2-5.3,2.6-7C57.6,389.7,57.5,388.5,56.8,387.4z"
		/>
	<path class="st0" d="M89,415.8c0-1,0.6-3.1,2.8-8.3c1.4-3.4,2.7-6.8,2.7-8.8c0-0.8-0.2-3.2-2.5-3.2c-1.9,0-4.1,1.8-5.8,4.7
		l-1.1,1.8l0.4-2.1c0.2-1.2,0.1-2-0.5-2.8c-0.5-0.6-1.1-1.1-1.9-1.5c-0.3,1.3-1.2,3.4-2.2,5.7c-1.2,3-2.7,6.4-3.4,9.1
		c-0.6,2.2-0.1,3.1,0.4,3.7s1.7,1.3,2.7,1.6c0.2-1.7,1.3-5.1,2.8-8.6c1.4-3.3,3.9-7,4.9-7c0.2,0,0.7,0.1,0.7,0.8
		c0,0.9-0.9,3-1.9,5.4c-0.6,1.3-1.1,2.7-1.6,3.9c-0.7,2-0.6,3.3,0.3,4.1C86.9,414.9,87.9,415.5,89,415.8z"/>
	<path class="st0" d="M109.6,401.5c0.5-1.9,0.5-3.2-0.1-4l0,0c-0.4-0.6-1-1.3-1.8-1.7c-0.2,0.6-0.4,1.2-0.7,1.9l-0.5,1.2l-0.3-1.2
		c-0.3-1.5-1.3-2.4-2.6-2.4c-1.2,0-2.6,0.8-4,2.3c-3.4,3.6-6.1,10.1-5.9,14.2c0.1,2.6,1.5,3.5,2.6,3.5c1.5,0,3.4-1.7,5-4.3l2.1-3.6
		l-1.4,3.9c-2.1,5.3-4.4,8-6.7,8c-1,0-2.1-0.5-3-1.4c-0.2,0.7-0.2,1.5-0.2,2.1c0.1,3,1.9,5,4.5,5c2.9,0,4.9-3.1,7.1-7.8
		C105.7,413.2,108.6,405.5,109.6,401.5z M99.8,410c-0.5,0-0.9-0.4-0.9-1c-0.1-2.1,2.4-7.5,4.4-9.5c0.6-0.6,1-0.9,1.5-0.9
		c0.6,0,1,0.5,1.3,1.3v0.1v0.1c-0.5,1.2-1.1,2.5-1.5,3.5C103.1,406.6,101.2,410,99.8,410z"/>
	<path class="st0" d="M79.6,394.6c1.5,0,2.6-1.8,2.6-4.1c0-2.2-1.4-4-3.2-4c-1.5,0-2.8,2.2-2.8,4.6C76.2,393,77.8,394.6,79.6,394.6z
		"/>
	<path class="st0" d="M39.4,410.2c-1.8,0-2.6-0.9-2.7-2.9v-0.4H37c5-0.5,9.4-4.4,9.5-8.4c0-1-0.3-1.9-0.9-2.5c-0.6-0.7-1.6-1-2.9-1
		c-5.7,0-11.4,8.3-11.5,14.5c-0.1,1.9,0.4,3.4,1.4,4.4c0.9,0.9,2.2,1.4,3.6,1.4c3.5,0,6.3-2.6,6.9-6.5
		C42,409.7,40.5,410.2,39.4,410.2z M37,404.4c0.8-3,3-6.5,4.7-6.5c0.5,0,1,0.3,1,1.2c0,1.8-2.3,4.8-5.2,5.7l-0.7,0.2L37,404.4z"/>
	<path class="st0" d="M75.2,395.7c-0.4,1.5-1.3,3.6-2.3,5.8c-1.2,2.7-2.5,5.9-3.2,8.5s-0.2,3.6,0.5,4.2s2,1.3,3.2,1.6
		c0-1.9,1.4-6.2,3.2-11.4c0.3-0.8,0.5-1.6,0.8-2.3c0.6-1.9,0.6-3.2,0-4.2C76.9,397.1,76.1,396.3,75.2,395.7z"/>
</g>
<g>
	<g>
		<path class="st1" d="M33.2,96.6v-3.3c-3.8,4.4-10.3,4.9-13.9,3.7c-6.6-2.2-9.3-6.6-9.3-16V62.3c0-7.4,0.4-17.6,19.7-17.6h3.5
			L33,20.8c0-1.9-1.5-3.4-3.3-3.4c-1.9,0-3.3,1.6-3.3,3.4V38H10V24.7c0-7.4,0.4-17.5,19.7-17.5c19.5,0,19.7,10.1,19.7,17.5v71.9
			C49.4,96.6,33.2,96.6,33.2,96.6z M33.2,55.5h-3.5c-1.9,0-3.3,1.5-3.3,3.3v24.9c0,1.8,1.5,3.4,3.3,3.4c1.9,0,3.5-1.6,3.5-3.4V55.5z
			"/>
		<path class="st1" d="M79.5,96.5v-4.2c-1.9,3-5.4,5.2-9.3,5.2c-9,0-13.9-4.8-13.9-14V8h16.4v75.6c0,1.9,1.5,3.4,3.3,3.4
			c1.9,0,3.4-1.6,3.4-3.4V8h16.3v88.5H79.5z"/>
		<path class="st1" d="M122.4,97.4c-19.3,0-19.7-10.1-19.7-17.5v-18h16.4v21.9c0,1.8,1.5,3.3,3.3,3.3c1.9,0,3.3-1.5,3.3-3.3V58.6
			c0-1.9-1.5-3.4-3.3-3.4h-6.9c-1.3,0-2.5-0.3-3.6-0.5c-6.6-2.4-9.3-6.8-9.3-16.2v-14c0-7.4,0.4-17.5,19.7-17.5
			C141.8,7,142,17.1,142,24.5v13.4h-16.4V20.7c0-1.9-1.5-3.3-3.3-3.3c-1.9,0-3.3,1.5-3.3,3.3v20.5c0,1.9,1.5,3.3,3.3,3.3h6.9
			c1.3,0,2.5,0.4,3.6,0.7c6.6,2.4,9.3,6.8,9.3,16.2v18.5C142.2,87.3,141.9,97.4,122.4,97.4"/>
		<path class="st1" d="M168.8,97.4c-19.3,0-19.7-10.1-19.7-17.5V8h16.4v8.3h23.1V30h-23.1v53.8c0,1.8,1.5,3.3,3.3,3.3
			c1.9,0,3.3-1.5,3.3-3.3V44.5h16.4v35.4C188.5,87.3,188.3,97.4,168.8,97.4"/>
		<rect x="195.7" y="8.2" class="st1" width="16.4" height="88.4"/>
		<path class="st1" d="M242.3,96.5V20.8c0-1.9-1.5-3.4-3.3-3.4c-1.9,0-3.3,1.6-3.3,3.4v75.6h-16.4V8h16.4v4.2c1.7-3,5.3-5.2,9-5.2
			c9.1,0,14,4.8,14,14v75.4L242.3,96.5L242.3,96.5z"/>
		<path class="st0" d="M38.8,209.8H34v25.1H11.3v-123h27.5c26.9,0,27.5,14,27.5,24.5v49C66.2,195.8,65.7,209.8,38.8,209.8
			 M43.4,131.1c0-2.6-2-4.8-4.6-4.8H34v68.6h4.8c2.6,0,4.6-2,4.6-4.6C43.4,190.3,43.4,131.1,43.4,131.1z"/>
		<path class="st0" d="M101.8,236.1c-26.9,0-27.5-14-27.5-24.3v-77c0-10.5,0.6-24.5,27.5-24.5s27.5,14,27.5,24.5v42.8H97.2V217
			c0,2.6,2,4.8,4.6,4.8s4.6-2.2,4.6-4.8v-30h22.9v24.9C129.3,222.1,128.7,236.1,101.8,236.1 M106.4,129.4c0-2.6-2-4.8-4.6-4.8
			s-4.6,2.2-4.6,4.8v33.2h9.2V129.4z"/>
		<path class="st0" d="M166.3,236c-26.9,0-27.5-14-27.5-24.3V111.5h22.9v11.6h32.1v19h-32.1V217c0,2.6,2,4.6,4.6,4.6s4.6-2,4.6-4.6
			v-54.6h22.9v49.2C193.8,222,193.4,236,166.3,236"/>
		<path class="st0" d="M230.9,236c-26.9,0-27.5-14-27.5-24.3v-25.1h22.9V217c0,2.6,2,4.6,4.6,4.6s4.6-2,4.6-4.6v-35
			c0-2.6-2-4.8-4.6-4.8h-9.6c-1.8,0-3.5-0.4-5-0.7c-9.2-3.3-12.9-9.4-12.9-22.5v-19.3c0-10.3,0.6-24.3,27.5-24.3
			c27.1,0,27.5,14,27.5,24.3v18.6h-22.9v-24c0-2.6-2-4.6-4.6-4.6s-4.6,2-4.6,4.6v28.6c0,2.6,2,4.6,4.6,4.6h9.6c1.8,0,3.5,0.6,5,0.9
			c9.2,3.3,12.9,9.4,12.9,22.5v25.8C258.3,222,258,236,230.9,236"/>
		<path class="st0" d="M41,368.5v-4.3c-5,5.7-13.4,6.3-18,4.8c-8.6-2.9-12-8.6-12-20.7v-24.2c0-9.6,0.5-22.8,25.5-22.8H41l-0.2-30.9
			c0-2.4-1.9-4.5-4.3-4.5c-2.4,0-4.3,2.1-4.3,4.5v22.3H11v-17.3c0-9.6,0.5-22.6,25.5-22.6c25.2,0,25.6,13,25.6,22.6v93.1H41z
			 M41,315.4h-4.5c-2.4,0-4.3,1.9-4.3,4.3v32.2c0,2.4,1.9,4.5,4.3,4.5c2.4,0,4.5-2.1,4.5-4.5V315.4z"/>
		<polygon class="st0" points="71,368.5 71,254.1 92.1,254.1 92.1,350.8 106.1,350.8 106.1,368.5 		"/>
		<rect x="112.3" y="254.1" class="st0" width="21.3" height="114.3"/>
		<polygon class="st0" points="184.6,368.5 154.6,368.5 139,254.1 160.1,254.1 169.6,355 179.2,254.1 200.2,254.1 		"/>
		<path class="st0" d="M230.9,369.7c-25,0-25.5-13-25.5-22.6v-71.7c0-9.8,0.5-22.8,25.5-22.8s25.5,13,25.5,22.8v39.8h-29.8v36.7
			c0,2.4,1.9,4.5,4.3,4.5c2.4,0,4.3-2.1,4.3-4.5v-28h21.2V347C256.5,356.7,256,369.7,230.9,369.7 M235.2,270.4
			c0-2.4-1.9-4.5-4.3-4.5c-2.4,0-4.3,2.1-4.3,4.5v30.9h8.6V270.4z"/>
		<polygon class="st0" points="329.6,267.7 283,267.7 273.4,8.9 339.7,8.9 		"/>
		<g>
			<path class="st0" d="M333.6,344.8c0,15-12.2,27.2-27.2,27.2s-27.2-12.2-27.2-27.2s12.2-27.2,27.2-27.2
				C321.4,317.7,333.6,329.8,333.6,344.8"/>
			<path class="st0" d="M344.3,334.3c4-4.8,9.4-6.8,12.1-4.5s1.6,8-2.4,12.7c-4,4.8-9.4,6.8-12.1,4.5
				C339.3,344.8,340.3,339.1,344.3,334.3"/>
		</g>
		<g>
			<path class="st0" d="M336.3,311.8c4-4.8,9.4-6.8,12.1-4.5s1.6,8-2.4,12.7c-4,4.8-9.4,6.8-12.1,4.5
				C331.3,322.3,332.3,316.6,336.3,311.8"/>
			<path class="st0" d="M320.7,298.3c4-4.8,9.4-6.8,12.1-4.5s1.6,8-2.4,12.7c-4,4.8-9.4,6.8-12.1,4.5
				C315.7,308.7,316.7,303,320.7,298.3"/>
			<path class="st0" d="M295.8,295.7c4-4.8,9.4-6.8,12.1-4.5s1.6,8-2.4,12.7c-4,4.8-9.4,6.8-12.1,4.5
				C290.8,306.1,291.8,300.4,295.8,295.7"/>
		</g>
	</g>
</g>
</svg>
